# xmcd
#
# Track frame offsets: 
#        150
#        13653
#        32182
#        52284
#        74713
#        93316
#        114693
#        136748
#        143459
#        170012
#        187935
#        203088
#        211697
#        227379
#        244338
#        257148
#        269427
#        288483
#        298160
#
# Disc length: 4324 seconds
#
# Revision: 0
# Processed by: cddbd v1.5.1PL0 Copyright (c) Steve Scherf et al.
# Submitted via: ExactAudioCopy v0.95a5
#
DISCID=2510e213
DTITLE=Liviu Jean Manciu - Portrait
DYEAR=2001
DGENRE=Blues
TTITLE0=Fire
TTITLE1=Sonata K 298
TTITLE2=Toether Strong
TTITLE3=Air
TTITLE4=Ain't No Way
TTITLE5=Sonata K. 141
TTITLE6=My Life
TTITLE7=Badinerie
TTITLE8=Voodoo Chile
TTITLE9=Adagio
TTITLE10=Randezvous
TTITLE11=About Foreign Lands and Peoples
TTITLE12=Purple Haze
TTITLE13=Sonata K 491
TTITLE14=Sweet Chicago
TTITLE15=Largo e Piano
TTITLE16=Blow the Fuse
TTITLE17=John Nineteen Forty-One
TTITLE18=You Keep Sayin You Gonna Leave Me
EXTD=
EXTT0=
EXTT1=
EXTT2=
EXTT3=
EXTT4=
EXTT5=
EXTT6=
EXTT7=
EXTT8=
EXTT9=
EXTT10=
EXTT11=
EXTT12=
EXTT13=
EXTT14=
EXTT15=
EXTT16=
EXTT17=
EXTT18=
PLAYORDER=
